<mxfile host="65bd71144e">
    <diagram id="w-v_ZXoZPjyiZdoUoFAu" name="ori">
        <mxGraphModel dx="1889" dy="1025" grid="1" gridSize="10" guides="1" tooltips="1" connect="1" arrows="1" fold="1" page="0" pageScale="1" pageWidth="827" pageHeight="1169" math="0" shadow="0">
            <root>
                <mxCell id="0"/>
                <mxCell id="1" parent="0"/>
                <mxCell id="5" value="&lt;span style=&quot;font-size: 18px;&quot;&gt;PC&lt;/span&gt;" style="rounded=1;whiteSpace=wrap;html=1;fontSize=12;" vertex="1" parent="1">
                    <mxGeometry x="-160" y="120" width="80" height="120" as="geometry"/>
                </mxCell>
                <mxCell id="6" value="&lt;span style=&quot;font-size: 18px;&quot;&gt;I$&lt;/span&gt;" style="rounded=1;whiteSpace=wrap;html=1;fontSize=12;" vertex="1" parent="1">
                    <mxGeometry x="20" y="140" width="120" height="80" as="geometry"/>
                </mxCell>
                <mxCell id="7" value="" style="group;fontSize=16;rounded=1;" vertex="1" connectable="0" parent="1">
                    <mxGeometry x="-40" y="-40" width="80" height="160" as="geometry"/>
                </mxCell>
                <mxCell id="8" value="" style="endArrow=none;html=1;rounded=1;curved=1;fontSize=16;" edge="1" parent="7">
                    <mxGeometry width="50" height="50" relative="1" as="geometry">
                        <mxPoint as="sourcePoint"/>
                        <mxPoint x="80" y="40" as="targetPoint"/>
                    </mxGeometry>
                </mxCell>
                <mxCell id="9" value="" style="endArrow=none;html=1;rounded=1;curved=1;fontSize=16;" edge="1" parent="7">
                    <mxGeometry width="50" height="50" relative="1" as="geometry">
                        <mxPoint y="160" as="sourcePoint"/>
                        <mxPoint x="80" y="120" as="targetPoint"/>
                    </mxGeometry>
                </mxCell>
                <mxCell id="10" value="" style="endArrow=none;html=1;rounded=1;curved=1;fontSize=16;" edge="1" parent="7">
                    <mxGeometry width="50" height="50" relative="1" as="geometry">
                        <mxPoint x="80" y="120" as="sourcePoint"/>
                        <mxPoint x="80" y="40" as="targetPoint"/>
                    </mxGeometry>
                </mxCell>
                <mxCell id="11" value="" style="endArrow=none;html=1;rounded=1;curved=1;fontSize=16;" edge="1" parent="7">
                    <mxGeometry width="50" height="50" relative="1" as="geometry">
                        <mxPoint y="160" as="sourcePoint"/>
                        <mxPoint y="100" as="targetPoint"/>
                    </mxGeometry>
                </mxCell>
                <mxCell id="12" value="" style="endArrow=none;html=1;rounded=1;curved=1;fontSize=16;" edge="1" parent="7">
                    <mxGeometry width="50" height="50" relative="1" as="geometry">
                        <mxPoint y="100" as="sourcePoint"/>
                        <mxPoint x="30" y="80" as="targetPoint"/>
                    </mxGeometry>
                </mxCell>
                <mxCell id="13" value="" style="endArrow=none;html=1;rounded=1;curved=1;fontSize=16;" edge="1" parent="7">
                    <mxGeometry width="50" height="50" relative="1" as="geometry">
                        <mxPoint y="60" as="sourcePoint"/>
                        <mxPoint x="30" y="80" as="targetPoint"/>
                    </mxGeometry>
                </mxCell>
                <mxCell id="14" value="" style="endArrow=none;html=1;rounded=1;curved=1;fontSize=16;" edge="1" parent="7">
                    <mxGeometry width="50" height="50" relative="1" as="geometry">
                        <mxPoint as="sourcePoint"/>
                        <mxPoint y="60" as="targetPoint"/>
                    </mxGeometry>
                </mxCell>
                <mxCell id="31" value="&lt;font style=&quot;font-size: 32px;&quot;&gt;+&lt;/font&gt;" style="text;html=1;align=center;verticalAlign=middle;resizable=0;points=[];autosize=1;strokeColor=none;fillColor=none;fontSize=16;fontStyle=1;rounded=1;" vertex="1" parent="7">
                    <mxGeometry x="35" y="55" width="40" height="50" as="geometry"/>
                </mxCell>
                <mxCell id="28" value="" style="endArrow=classic;html=1;exitX=1;exitY=0.5;exitDx=0;exitDy=0;entryX=0;entryY=0.5;entryDx=0;entryDy=0;fontSize=16;rounded=1;" edge="1" parent="1" source="5" target="6">
                    <mxGeometry width="50" height="50" relative="1" as="geometry">
                        <mxPoint x="170" y="40" as="sourcePoint"/>
                        <mxPoint x="230" y="40" as="targetPoint"/>
                    </mxGeometry>
                </mxCell>
                <mxCell id="29" value="" style="endArrow=classic;html=1;exitX=1;exitY=0.5;exitDx=0;exitDy=0;fontSize=16;rounded=1;" edge="1" parent="1" source="5">
                    <mxGeometry width="50" height="50" relative="1" as="geometry">
                        <mxPoint x="170" y="40" as="sourcePoint"/>
                        <mxPoint x="-40" y="90" as="targetPoint"/>
                        <Array as="points">
                            <mxPoint x="-60" y="180"/>
                            <mxPoint x="-60" y="90"/>
                        </Array>
                    </mxGeometry>
                </mxCell>
                <mxCell id="36" value="&lt;span style=&quot;font-size: 18px&quot;&gt;4&lt;/span&gt;" style="rounded=1;whiteSpace=wrap;html=1;fontSize=12;" vertex="1" parent="1">
                    <mxGeometry x="-110" y="-20" width="30" height="30" as="geometry"/>
                </mxCell>
                <mxCell id="37" value="" style="endArrow=classic;html=1;exitX=1;exitY=0.5;exitDx=0;exitDy=0;fontSize=16;rounded=1;" edge="1" parent="1" source="36">
                    <mxGeometry width="50" height="50" relative="1" as="geometry">
                        <mxPoint x="170" y="30" as="sourcePoint"/>
                        <mxPoint x="-40" y="-5" as="targetPoint"/>
                    </mxGeometry>
                </mxCell>
                <mxCell id="53" value="" style="endArrow=classic;html=1;exitX=1.125;exitY=0.5;exitDx=0;exitDy=0;entryX=0.5;entryY=0;entryDx=0;entryDy=0;fontSize=16;rounded=1;exitPerimeter=0;" edge="1" parent="1" source="31" target="5">
                    <mxGeometry width="50" height="50" relative="1" as="geometry">
                        <mxPoint x="170" as="sourcePoint"/>
                        <mxPoint x="230" as="targetPoint"/>
                        <Array as="points">
                            <mxPoint x="80" y="40"/>
                            <mxPoint x="80" y="-80"/>
                            <mxPoint x="-120" y="-80"/>
                        </Array>
                    </mxGeometry>
                </mxCell>
                <mxCell id="55" value="" style="group;fontSize=16;rounded=1;" vertex="1" connectable="0" parent="1">
                    <mxGeometry x="210" y="25.000000000000227" width="20" height="310" as="geometry"/>
                </mxCell>
                <mxCell id="56" value="" style="rounded=1;whiteSpace=wrap;html=1;fontSize=14;" vertex="1" parent="55">
                    <mxGeometry width="20" height="310" as="geometry"/>
                </mxCell>
                <mxCell id="57" value="" style="endArrow=none;html=1;exitX=0;exitY=0;exitDx=0;exitDy=0;entryX=1;entryY=0;entryDx=0;entryDy=0;fontSize=16;rounded=1;" edge="1" parent="55" source="56" target="56">
                    <mxGeometry width="50" height="50" relative="1" as="geometry">
                        <mxPoint x="300" y="140" as="sourcePoint"/>
                        <mxPoint x="360" y="90" as="targetPoint"/>
                        <Array as="points">
                            <mxPoint x="10" y="20"/>
                        </Array>
                    </mxGeometry>
                </mxCell>
                <mxCell id="58" value="" style="endArrow=classic;html=1;exitX=1;exitY=0.5;exitDx=0;exitDy=0;entryX=0;entryY=0.5;entryDx=0;entryDy=0;fontSize=16;rounded=1;" edge="1" parent="1" source="6" target="56">
                    <mxGeometry width="50" height="50" relative="1" as="geometry">
                        <mxPoint x="320" y="170" as="sourcePoint"/>
                        <mxPoint x="380" y="170" as="targetPoint"/>
                    </mxGeometry>
                </mxCell>
                <mxCell id="59" value="&lt;span style=&quot;font-size: 18px;&quot;&gt;寄存器&lt;/span&gt;" style="rounded=1;whiteSpace=wrap;html=1;fontSize=12;" vertex="1" parent="1">
                    <mxGeometry x="320" y="120" width="80" height="120" as="geometry"/>
                </mxCell>
                <mxCell id="60" value="" style="rounded=1;whiteSpace=wrap;html=1;fontSize=14;" vertex="1" parent="1">
                    <mxGeometry x="260.0000000000001" y="40.00000000000006" width="11.666666666666668" height="280" as="geometry"/>
                </mxCell>
                <mxCell id="62" value="" style="endArrow=classic;html=1;entryX=0.016;entryY=0.326;entryDx=0;entryDy=0;fontSize=16;rounded=1;entryPerimeter=0;" edge="1" parent="1" target="59">
                    <mxGeometry width="50" height="50" relative="1" as="geometry">
                        <mxPoint x="270" y="159" as="sourcePoint"/>
                        <mxPoint x="330" y="180" as="targetPoint"/>
                    </mxGeometry>
                </mxCell>
                <mxCell id="63" value="" style="endArrow=classic;html=1;exitX=1.063;exitY=0.859;exitDx=0;exitDy=0;fontSize=16;rounded=1;exitPerimeter=0;entryX=-0.006;entryY=0.394;entryDx=0;entryDy=0;entryPerimeter=0;" edge="1" parent="1" source="60" target="64">
                    <mxGeometry width="50" height="50" relative="1" as="geometry">
                        <mxPoint x="270" y="260" as="sourcePoint"/>
                        <mxPoint x="330" y="280" as="targetPoint"/>
                    </mxGeometry>
                </mxCell>
                <mxCell id="64" value="&lt;span style=&quot;font-size: 18px;&quot;&gt;立即数扩展&lt;/span&gt;" style="rounded=1;whiteSpace=wrap;html=1;fontSize=12;" vertex="1" parent="1">
                    <mxGeometry x="320" y="260" width="100" height="50" as="geometry"/>
                </mxCell>
                <mxCell id="67" value="" style="group;fontSize=16;rounded=1;" vertex="1" connectable="0" parent="1">
                    <mxGeometry x="450" y="70" width="40" height="120" as="geometry"/>
                </mxCell>
                <mxCell id="68" value="" style="endArrow=none;html=1;rounded=1;curved=1;fontSize=16;" edge="1" parent="67">
                    <mxGeometry width="50" height="50" relative="1" as="geometry">
                        <mxPoint as="sourcePoint"/>
                        <mxPoint x="40" y="20" as="targetPoint"/>
                    </mxGeometry>
                </mxCell>
                <mxCell id="69" value="" style="endArrow=none;html=1;rounded=1;curved=1;fontSize=16;" edge="1" parent="67">
                    <mxGeometry width="50" height="50" relative="1" as="geometry">
                        <mxPoint y="120" as="sourcePoint"/>
                        <mxPoint x="40" y="100" as="targetPoint"/>
                    </mxGeometry>
                </mxCell>
                <mxCell id="70" value="" style="endArrow=none;html=1;rounded=1;curved=1;fontSize=16;" edge="1" parent="67">
                    <mxGeometry width="50" height="50" relative="1" as="geometry">
                        <mxPoint x="39.829999999999984" y="100" as="sourcePoint"/>
                        <mxPoint x="40" y="20" as="targetPoint"/>
                    </mxGeometry>
                </mxCell>
                <mxCell id="71" value="" style="endArrow=none;html=1;rounded=1;curved=1;fontSize=16;" edge="1" parent="67">
                    <mxGeometry width="50" height="50" relative="1" as="geometry">
                        <mxPoint y="120" as="sourcePoint"/>
                        <mxPoint as="targetPoint"/>
                    </mxGeometry>
                </mxCell>
                <mxCell id="72" value="&lt;span style=&quot;font-size: 20px&quot;&gt;M&lt;br&gt;U&lt;br&gt;X&lt;/span&gt;" style="text;html=1;strokeColor=none;fillColor=none;align=center;verticalAlign=middle;whiteSpace=wrap;rounded=1;fontSize=16;" vertex="1" parent="67">
                    <mxGeometry x="10" y="45" width="20" height="30" as="geometry"/>
                </mxCell>
                <mxCell id="73" value="" style="endArrow=classic;html=1;exitX=0.981;exitY=0.573;exitDx=0;exitDy=0;fontSize=16;rounded=1;exitPerimeter=0;" edge="1" parent="1" source="60">
                    <mxGeometry width="50" height="50" relative="1" as="geometry">
                        <mxPoint x="410" y="180" as="sourcePoint"/>
                        <mxPoint x="320" y="200" as="targetPoint"/>
                    </mxGeometry>
                </mxCell>
                <mxCell id="74" value="" style="endArrow=classic;html=1;exitX=1;exitY=0.25;exitDx=0;exitDy=0;fontSize=16;rounded=1;" edge="1" parent="1" source="59">
                    <mxGeometry width="50" height="50" relative="1" as="geometry">
                        <mxPoint x="410" y="180" as="sourcePoint"/>
                        <mxPoint x="450" y="150" as="targetPoint"/>
                    </mxGeometry>
                </mxCell>
                <mxCell id="75" value="" style="endArrow=classic;html=1;exitX=1;exitY=0.5;exitDx=0;exitDy=0;fontSize=16;rounded=1;" edge="1" parent="1" source="64">
                    <mxGeometry width="50" height="50" relative="1" as="geometry">
                        <mxPoint x="410" y="220" as="sourcePoint"/>
                        <mxPoint x="450" y="170" as="targetPoint"/>
                        <Array as="points">
                            <mxPoint x="430" y="285"/>
                            <mxPoint x="430" y="170"/>
                        </Array>
                    </mxGeometry>
                </mxCell>
                <mxCell id="76" value="" style="group;fontSize=16;rounded=1;" vertex="1" connectable="0" parent="1">
                    <mxGeometry x="450" y="200" width="40" height="120" as="geometry"/>
                </mxCell>
                <mxCell id="77" value="" style="endArrow=none;html=1;rounded=1;curved=1;fontSize=16;" edge="1" parent="76">
                    <mxGeometry width="50" height="50" relative="1" as="geometry">
                        <mxPoint as="sourcePoint"/>
                        <mxPoint x="40" y="20" as="targetPoint"/>
                    </mxGeometry>
                </mxCell>
                <mxCell id="78" value="" style="endArrow=none;html=1;rounded=1;curved=1;fontSize=16;" edge="1" parent="76">
                    <mxGeometry width="50" height="50" relative="1" as="geometry">
                        <mxPoint y="120" as="sourcePoint"/>
                        <mxPoint x="40" y="100" as="targetPoint"/>
                    </mxGeometry>
                </mxCell>
                <mxCell id="79" value="" style="endArrow=none;html=1;rounded=1;curved=1;fontSize=16;" edge="1" parent="76">
                    <mxGeometry width="50" height="50" relative="1" as="geometry">
                        <mxPoint x="39.829999999999984" y="100" as="sourcePoint"/>
                        <mxPoint x="40" y="20" as="targetPoint"/>
                    </mxGeometry>
                </mxCell>
                <mxCell id="80" value="" style="endArrow=none;html=1;rounded=1;curved=1;fontSize=16;" edge="1" parent="76">
                    <mxGeometry width="50" height="50" relative="1" as="geometry">
                        <mxPoint y="120" as="sourcePoint"/>
                        <mxPoint as="targetPoint"/>
                    </mxGeometry>
                </mxCell>
                <mxCell id="81" value="&lt;span style=&quot;font-size: 20px&quot;&gt;M&lt;br&gt;U&lt;br&gt;X&lt;/span&gt;" style="text;html=1;strokeColor=none;fillColor=none;align=center;verticalAlign=middle;whiteSpace=wrap;rounded=1;fontSize=16;" vertex="1" parent="76">
                    <mxGeometry x="10" y="45" width="20" height="30" as="geometry"/>
                </mxCell>
                <mxCell id="82" value="" style="endArrow=classic;html=1;exitX=1;exitY=0.75;exitDx=0;exitDy=0;fontSize=16;rounded=1;" edge="1" parent="1" source="64">
                    <mxGeometry width="50" height="50" relative="1" as="geometry">
                        <mxPoint x="410" y="220" as="sourcePoint"/>
                        <mxPoint x="450" y="298" as="targetPoint"/>
                    </mxGeometry>
                </mxCell>
                <mxCell id="84" value="" style="endArrow=classic;html=1;exitX=1.004;exitY=0.831;exitDx=0;exitDy=0;fontSize=16;rounded=1;exitPerimeter=0;" edge="1" parent="1" source="59">
                    <mxGeometry width="50" height="50" relative="1" as="geometry">
                        <mxPoint x="410" y="180" as="sourcePoint"/>
                        <mxPoint x="450" y="220" as="targetPoint"/>
                    </mxGeometry>
                </mxCell>
                <mxCell id="85" value="" style="group;fontSize=16;rounded=1;" vertex="1" connectable="0" parent="1">
                    <mxGeometry x="540" y="30.000000000000227" width="20" height="310" as="geometry"/>
                </mxCell>
                <mxCell id="86" value="" style="rounded=1;whiteSpace=wrap;html=1;fontSize=14;" vertex="1" parent="85">
                    <mxGeometry width="20" height="310" as="geometry"/>
                </mxCell>
                <mxCell id="87" value="" style="endArrow=none;html=1;exitX=0;exitY=0;exitDx=0;exitDy=0;entryX=1;entryY=0;entryDx=0;entryDy=0;fontSize=16;rounded=1;" edge="1" parent="85" source="86" target="86">
                    <mxGeometry width="50" height="50" relative="1" as="geometry">
                        <mxPoint x="300" y="140" as="sourcePoint"/>
                        <mxPoint x="360" y="90" as="targetPoint"/>
                        <Array as="points">
                            <mxPoint x="10" y="20"/>
                        </Array>
                    </mxGeometry>
                </mxCell>
                <mxCell id="88" value="" style="endArrow=classic;html=1;entryX=-0.064;entryY=0.32;entryDx=0;entryDy=0;fontSize=16;rounded=1;entryPerimeter=0;" edge="1" parent="1" target="86">
                    <mxGeometry width="50" height="50" relative="1" as="geometry">
                        <mxPoint x="490" y="130" as="sourcePoint"/>
                        <mxPoint x="580" y="190" as="targetPoint"/>
                    </mxGeometry>
                </mxCell>
                <mxCell id="89" value="" style="endArrow=classic;html=1;entryX=0;entryY=0.75;entryDx=0;entryDy=0;fontSize=16;rounded=1;" edge="1" parent="1" target="86">
                    <mxGeometry width="50" height="50" relative="1" as="geometry">
                        <mxPoint x="490" y="263" as="sourcePoint"/>
                        <mxPoint x="580" y="190" as="targetPoint"/>
                    </mxGeometry>
                </mxCell>
                <mxCell id="90" value="" style="group;fontSize=16;rounded=1;" vertex="1" connectable="0" parent="1">
                    <mxGeometry x="620" y="100" width="90" height="190" as="geometry"/>
                </mxCell>
                <mxCell id="91" value="" style="endArrow=none;html=1;rounded=1;curved=1;fontSize=16;" edge="1" parent="90">
                    <mxGeometry width="50" height="50" relative="1" as="geometry">
                        <mxPoint as="sourcePoint"/>
                        <mxPoint x="90" y="47.5" as="targetPoint"/>
                    </mxGeometry>
                </mxCell>
                <mxCell id="92" value="" style="endArrow=none;html=1;rounded=1;curved=1;fontSize=16;" edge="1" parent="90">
                    <mxGeometry width="50" height="50" relative="1" as="geometry">
                        <mxPoint y="190" as="sourcePoint"/>
                        <mxPoint x="90" y="142.5" as="targetPoint"/>
                    </mxGeometry>
                </mxCell>
                <mxCell id="93" value="" style="endArrow=none;html=1;rounded=1;curved=1;fontSize=16;" edge="1" parent="90">
                    <mxGeometry width="50" height="50" relative="1" as="geometry">
                        <mxPoint x="90" y="142.5" as="sourcePoint"/>
                        <mxPoint x="90" y="47.5" as="targetPoint"/>
                    </mxGeometry>
                </mxCell>
                <mxCell id="94" value="" style="endArrow=none;html=1;rounded=1;curved=1;fontSize=16;" edge="1" parent="90">
                    <mxGeometry width="50" height="50" relative="1" as="geometry">
                        <mxPoint y="190" as="sourcePoint"/>
                        <mxPoint y="118.75" as="targetPoint"/>
                    </mxGeometry>
                </mxCell>
                <mxCell id="95" value="" style="endArrow=none;html=1;rounded=1;curved=1;fontSize=16;" edge="1" parent="90">
                    <mxGeometry width="50" height="50" relative="1" as="geometry">
                        <mxPoint y="118.75" as="sourcePoint"/>
                        <mxPoint x="33.75" y="95" as="targetPoint"/>
                    </mxGeometry>
                </mxCell>
                <mxCell id="96" value="" style="endArrow=none;html=1;rounded=1;curved=1;fontSize=16;" edge="1" parent="90">
                    <mxGeometry width="50" height="50" relative="1" as="geometry">
                        <mxPoint y="71.25" as="sourcePoint"/>
                        <mxPoint x="33.75" y="95" as="targetPoint"/>
                    </mxGeometry>
                </mxCell>
                <mxCell id="97" value="" style="endArrow=none;html=1;rounded=1;curved=1;fontSize=16;" edge="1" parent="90">
                    <mxGeometry width="50" height="50" relative="1" as="geometry">
                        <mxPoint as="sourcePoint"/>
                        <mxPoint y="71.25" as="targetPoint"/>
                    </mxGeometry>
                </mxCell>
                <mxCell id="98" value="&lt;span style=&quot;font-size: 24px; font-weight: normal;&quot;&gt;A&lt;br&gt;L&lt;br&gt;U&lt;/span&gt;" style="text;html=1;align=center;verticalAlign=middle;resizable=0;points=[];autosize=1;strokeColor=none;fillColor=none;fontSize=16;fontStyle=1;rounded=1;" vertex="1" parent="90">
                    <mxGeometry x="39.375" y="35.625" width="40" height="100" as="geometry"/>
                </mxCell>
                <mxCell id="99" value="" style="endArrow=classic;html=1;exitX=1.017;exitY=0.323;exitDx=0;exitDy=0;fontSize=16;rounded=1;exitPerimeter=0;" edge="1" parent="1" source="86">
                    <mxGeometry width="50" height="50" relative="1" as="geometry">
                        <mxPoint x="520" y="190" as="sourcePoint"/>
                        <mxPoint x="620" y="130" as="targetPoint"/>
                    </mxGeometry>
                </mxCell>
                <mxCell id="100" value="" style="endArrow=classic;html=1;exitX=1;exitY=0.75;exitDx=0;exitDy=0;fontSize=16;rounded=1;" edge="1" parent="1" source="86">
                    <mxGeometry width="50" height="50" relative="1" as="geometry">
                        <mxPoint x="520" y="190" as="sourcePoint"/>
                        <mxPoint x="620" y="263" as="targetPoint"/>
                    </mxGeometry>
                </mxCell>
                <mxCell id="101" value="" style="group;fontSize=16;rounded=1;" vertex="1" connectable="0" parent="1">
                    <mxGeometry x="760" y="30.000000000000227" width="20" height="310" as="geometry"/>
                </mxCell>
                <mxCell id="102" value="" style="rounded=1;whiteSpace=wrap;html=1;fontSize=14;" vertex="1" parent="101">
                    <mxGeometry width="20" height="310" as="geometry"/>
                </mxCell>
                <mxCell id="103" value="" style="endArrow=none;html=1;exitX=0;exitY=0;exitDx=0;exitDy=0;entryX=1;entryY=0;entryDx=0;entryDy=0;fontSize=16;rounded=1;" edge="1" parent="101" source="102" target="102">
                    <mxGeometry width="50" height="50" relative="1" as="geometry">
                        <mxPoint x="300" y="140" as="sourcePoint"/>
                        <mxPoint x="360" y="90" as="targetPoint"/>
                        <Array as="points">
                            <mxPoint x="10" y="20"/>
                        </Array>
                    </mxGeometry>
                </mxCell>
                <mxCell id="104" value="" style="endArrow=classic;html=1;entryX=0.017;entryY=0.516;entryDx=0;entryDy=0;fontSize=16;rounded=1;entryPerimeter=0;" edge="1" parent="1" target="102">
                    <mxGeometry width="50" height="50" relative="1" as="geometry">
                        <mxPoint x="710" y="190" as="sourcePoint"/>
                        <mxPoint x="730" y="190" as="targetPoint"/>
                    </mxGeometry>
                </mxCell>
                <mxCell id="105" value="" style="group;fontSize=16;rounded=1;" vertex="1" connectable="0" parent="1">
                    <mxGeometry x="840" y="30.000000000000227" width="20" height="310" as="geometry"/>
                </mxCell>
                <mxCell id="106" value="" style="rounded=1;whiteSpace=wrap;html=1;fontSize=14;" vertex="1" parent="105">
                    <mxGeometry width="20" height="310" as="geometry"/>
                </mxCell>
                <mxCell id="107" value="" style="endArrow=none;html=1;exitX=0;exitY=0;exitDx=0;exitDy=0;entryX=1;entryY=0;entryDx=0;entryDy=0;fontSize=16;rounded=1;" edge="1" parent="105" source="106" target="106">
                    <mxGeometry width="50" height="50" relative="1" as="geometry">
                        <mxPoint x="300" y="140" as="sourcePoint"/>
                        <mxPoint x="360" y="90" as="targetPoint"/>
                        <Array as="points">
                            <mxPoint x="10" y="20"/>
                        </Array>
                    </mxGeometry>
                </mxCell>
                <mxCell id="108" value="" style="endArrow=classic;html=1;fontSize=16;rounded=1;" edge="1" parent="1">
                    <mxGeometry width="50" height="50" relative="1" as="geometry">
                        <mxPoint x="780" y="190" as="sourcePoint"/>
                        <mxPoint x="840" y="190" as="targetPoint"/>
                    </mxGeometry>
                </mxCell>
                <mxCell id="112" value="" style="endArrow=classic;html=1;exitX=1;exitY=0.5;exitDx=0;exitDy=0;entryX=0;entryY=0.5;entryDx=0;entryDy=0;fontSize=16;rounded=1;" edge="1" parent="1" source="56" target="60">
                    <mxGeometry width="50" height="50" relative="1" as="geometry">
                        <mxPoint x="540" y="260" as="sourcePoint"/>
                        <mxPoint x="600" y="260" as="targetPoint"/>
                    </mxGeometry>
                </mxCell>
                <mxCell id="113" value="" style="endArrow=classic;html=1;exitX=1;exitY=0.5;exitDx=0;exitDy=0;fontSize=16;rounded=1;entryX=0;entryY=0.75;entryDx=0;entryDy=0;" edge="1" parent="1" source="106" target="59">
                    <mxGeometry width="50" height="50" relative="1" as="geometry">
                        <mxPoint x="540" y="260" as="sourcePoint"/>
                        <mxPoint x="290" y="360" as="targetPoint"/>
                        <Array as="points">
                            <mxPoint x="920" y="185"/>
                            <mxPoint x="920" y="360"/>
                            <mxPoint x="290" y="360"/>
                            <mxPoint x="290" y="210"/>
                        </Array>
                    </mxGeometry>
                </mxCell>
            </root>
        </mxGraphModel>
    </diagram>
</mxfile>